<svg width="134px" height="17px" viewBox="0 0 134 17" version="1.1" xmlns="http://www.w3.org/2000/svg" xmlns:xlink="http://www.w3.org/1999/xlink" class="menu__logo-desktop"><title>PartnerComm</title> <g stroke="none" stroke-width="1" fill="none" fill-rule="evenodd"><g transform="translate(0.000000, -3.000000)" fill="#49B2FC"><g transform="translate(0.000000, 3.000000)"><g fill-rule="nonzero" stroke="#49B2FC" stroke-width="0.5"><path d="M20.8466065,0.5 C24.1526979,0.5 27.1087181,2.35946341 28.4519871,5.19930778 L28.6062205,5.52535621 L25.4936969,8.50012086 L28.6062205,11.4748949 L28.4519794,11.8009502 C27.108681,14.640593 24.1526356,16.5 20.8466065,16.5 C18.5597943,16.5 16.4857885,15.6179462 14.9772268,14.1881232 C13.4413309,15.6178611 11.328552,16.5 8.99987397,16.5 L0.5,16.5 L0.5,8.49987914 C0.5,4.15619761 4.17260174,0.632671284 8.74038293,0.503659911 L8.99987397,0.5 C11.3285311,0.5 13.4413098,1.38212906 14.9779918,2.81253279 C16.4858103,1.38210333 18.5598159,0.5 20.8466065,0.5 Z M20.8466065,1.5 C18.8236678,1.5 16.9936394,2.27848761 15.666054,3.53691435 C16.81466,4.9002526 17.5,6.62355311 17.5,8.49987914 C17.5,10.376746 16.814335,12.100484 15.6670612,13.4634356 C16.9945388,14.7219534 18.8241532,15.5 20.8466065,15.5 C23.6403718,15.5 26.1439191,14.0015118 27.3867118,11.6926206 L24.0463697,8.50012086 L27.3867118,5.30761073 C26.1439576,2.99853895 23.6404308,1.5 20.8466065,1.5 Z M8.99987397,1.5 C4.85087377,1.5 1.5,4.64146573 1.5,8.49987914 L1.5,15.5 L8.99987397,15.5 C11.068887,15.5 12.9394491,14.7187955 14.2949836,13.4570347 C13.1709782,12.0945503 12.5,10.37329 12.5,8.50012086 C12.5,6.62693441 13.170986,4.9056281 14.2943353,3.54346424 C12.9937968,2.3317999 11.2180849,1.56343574 9.24783914,1.50375042 L8.99987397,1.5 Z M14.9852066,4.28171046 L14.9710566,4.29756264 C14.0471642,5.46858992 13.5,6.92423858 13.5,8.50012086 C13.5,10.0827747 14.0518824,11.5441328 14.9830088,12.7176953 C15.9363713,11.5442047 16.5,10.0823416 16.5,8.49987914 C16.5,6.91750161 15.936365,5.45569444 14.9852066,4.28171046 Z"></path></g> <path d="M40.1447349,6.86361862 C40.1158528,6.16830781 39.8996493,5.5135991 38.5450768,5.5135991 L36.8303027,5.5135991 L36.8158616,9.01826227 L38.5450768,9.01826227 C39.8996493,9.01826227 40.1158528,8.36355355 40.1447349,7.66824274 C40.159176,7.35474776 40.159176,7.17750401 40.1447349,6.86361862 M41.9894786,7.64091441 C41.9028322,9.52305557 41.1102237,10.5318614 38.5450768,10.5318614 L36.8158616,10.5455255 L36.8158616,13 L35,13 L35,4 L38.5450768,4 C41.1102237,4 41.9028322,5.0091962 41.9894786,6.89094695 C42.0035071,7.19116818 42.0035071,7.34108359 41.9894786,7.64091441"></path> <path d="M47.0722684,9.86387889 L45.9175481,6.03205657 L44.7903773,9.86387889 L47.0722684,9.86387889 Z M47.4984995,11.295493 L44.3645398,11.295493 L43.8005608,13 L42,13 L45.1339598,4 L46.7562355,4 L50,13 L48.0758597,13 L47.4984995,11.295493 Z"></path> <path d="M55.5992639,8.47933992 C56.6313055,8.49298337 56.9491773,8.00298857 56.9885798,7.25376819 C57.0018402,7.0362526 57.0018402,6.9002079 56.9885798,6.69594595 C56.9620589,6.00129938 56.6710868,5.51130457 55.5860035,5.51130457 L53.6806668,5.51130457 L53.6806668,8.47933992 L55.5992639,8.47933992 Z M57.2136285,13 L55.7049686,9.97739085 L55.5992639,9.97739085 L53.6670275,9.99064449 L53.6670275,12.9863565 L52,12.9863565 L52,4 L55.5860035,4 C57.809212,4 58.6162048,5.11642412 58.6957675,6.66865904 C58.7090279,6.9274948 58.7090279,7.04989605 58.6957675,7.32198545 C58.6427257,8.41151247 58.2456701,9.26910083 57.2666703,9.69087838 L59,12.9863565 L57.2136285,13 Z"></path> <polygon points="68 4 68 5.49993493 65.3582331 5.49993493 65.3582331 13 63.6285094 13 63.6285094 5.49993493 61 5.49993493 61 4"></polygon> <polygon points="77 4 77 13 75.6317206 13 71.6447985 7.32702902 71.6447985 13 70 13 70 4 71.1316937 4 75.3423928 10.2047022 75.3423928 4"></polygon> <polygon points="81.8406639 5.5 81.8406639 7.64107236 85.3045643 7.64107236 85.2900415 9.10007808 81.8406639 9.11374284 81.8406639 11.5003904 86 11.5003904 86 13 80 13 80 4 85.7970954 4 85.7970954 5.5"></polygon> <path d="M91.5990691,8.47933992 C92.6314337,8.49298337 92.9489095,8.00298857 92.9886886,7.25376819 C93.0015695,7.0362526 93.0015695,6.9002079 92.9886886,6.69594595 C92.9621692,6.00129938 92.670834,5.51130457 91.5861882,5.51130457 L89.6805759,5.51130457 L89.6805759,8.47933992 L91.5990691,8.47933992 Z M93.2137252,13 L91.7047681,9.97739085 L91.5990691,9.97739085 L89.6673161,9.99064449 L89.6673161,12.9863565 L88,12.9863565 L88,4 L91.5861882,4 C93.8088975,4 94.6162256,5.11642412 94.6954051,6.66865904 C94.7086648,6.9274948 94.7086648,7.04989605 94.6954051,7.32198545 C94.6423662,8.41151247 94.245332,9.26910083 93.2663852,9.69087838 L95,12.9863565 L93.2137252,13 Z"></path> <path d="M103,11.0538307 L103,12.5891007 C102.367555,12.8005224 101.709236,13.0123229 100.624359,12.9994406 C97.9907129,12.9994406 97.1128309,11.7418984 97.0097029,9.08207717 C96.9967657,8.69825967 96.9967657,8.32770338 97.0097029,7.94388588 C97.1128309,5.28368579 97.9907129,4 100.624359,4 C101.631613,4 102.302869,4.19853936 102.974495,4.51642967 L102.974495,6.06458201 C102.25149,5.74707059 101.386176,5.54853123 100.624359,5.54853123 C99.0752206,5.54853123 98.7266553,6.4351383 98.6623389,7.94388588 C98.649032,8.32770338 98.649032,8.69825967 98.6623389,9.08207717 C98.7266553,10.5904459 99.0752206,11.4509094 100.624359,11.4509094 C101.489673,11.4641706 102.173867,11.2921537 103,11.0538307"></path> <path d="M109.006855,5.54831376 C107.401532,5.54831376 106.894652,6.276241 106.824084,7.67942402 C106.795857,8.27472527 106.795857,8.75142099 106.824084,9.34672224 C106.894652,10.7499053 107.401532,11.4513073 109.006855,11.4513073 C110.598468,11.4513073 111.105348,10.7499053 111.175916,9.34672224 C111.204143,8.75142099 111.204143,8.27472527 111.175916,7.67942402 C111.105348,6.276241 110.598468,5.54831376 109.006855,5.54831376 M112.97883,9.34672224 C112.851807,11.7688518 111.781592,13 109.006855,13 C106.232522,13 105.148193,11.7688518 105.02117,9.34672224 C104.992943,8.75142099 104.992943,8.27472527 105.02117,7.67942402 C105.134079,5.25729443 106.232522,4 109.006855,4 C111.781592,4 112.851807,5.25729443 112.97883,7.67942402 C113.007057,8.27472527 113.007057,8.75142099 112.97883,9.34672224"></path> <polygon points="123 4.01364345 123 13 121.386933 13 121.386933 7.1450104 119.603398 10.5352131 118.396602 10.5352131 116.599925 7.15865385 116.599925 12.9863565 115 12.9863565 115 4 116.521449 4 119.000375 8.76507277 121.465784 4.01364345"></polygon> <polygon points="134 4.01364345 134 13 132.386933 13 132.386933 7.1450104 130.603398 10.5352131 129.396602 10.5352131 127.599925 7.15865385 127.599925 12.9863565 126 12.9863565 126 4 127.521449 4 130.000375 8.76507277 132.465784 4.01364345"></polygon></g></g></g></svg>